<svg width="35" height="35" xmlns="http://www.w3.org/2000/svg"><g fill-rule="nonzero" fill="none"><path fill="#0084B1" d="M0 0h34.979v34.979H0z"></path><g fill="#FFF"><path d="M8.232 5.313a2.94 2.94 0 0 1 2.92 2.934c-.004 1.686-1.403 2.957-2.94 2.92-1.558.032-2.928-1.27-2.928-2.93 0-1.612 1.327-2.926 2.948-2.924zM9.934 29.663H6.502a.807.807 0 0 1-.807-.806V14.213c0-.445.361-.806.807-.806h3.432c.446 0 .807.36.807.806v14.644a.807.807 0 0 1-.807.806zM29.695 18.55a5.559 5.559 0 0 0-5.559-5.558h-.88a4.934 4.934 0 0 0-4.326 2.553.37.37 0 0 0-.046-.006v-1.797a.335.335 0 0 0-.335-.335h-4.282a.335.335 0 0 0-.335.335v15.587c0 .185.15.334.335.334l4.375.002c.185 0 .335-.15.335-.335v-9.005c0-1.557 1.242-2.85 2.798-2.867a2.82 2.82 0 0 1 2.034.829c.513.512.83 1.22.83 2.002v9.042c0 .185.15.335.334.335h4.387c.185 0 .335-.15.335-.334V18.55z"></path></g></g></svg>