<svg width="35" height="35" xmlns="http://www.w3.org/2000/svg"><g fill-rule="nonzero" fill="none"><path fill="#61A8DE" d="M0 0h34.979v34.979H0z"></path><path d="M27.543 7.721L4.152 16.837c-.758.295-.712 1.382.068 1.613l5.944 1.755 2.218 7.039a1.02 1.02 0 0 0 1.703.407l3.073-3.138 6.03 4.426c.738.542 1.789.14 1.976-.757L29.158 9.09a1.203 1.203 0 0 0-1.615-1.368zM24.61 11.96l-10.865 9.608a.584.584 0 0 0-.193.372l-.418 3.718c-.014.122-.184.138-.22.021l-1.721-5.546a.584.584 0 0 1 .25-.669l12.83-7.957c.295-.183.597.223.337.453z" fill="#FFF"></path></g></svg>