<svg width="35" height="35" xmlns="http://www.w3.org/2000/svg"><g fill-rule="nonzero" fill="none"><path fill="#50ABF1" d="M0 0h34.979v34.979H0z"></path><path d="M4.634 25.93a14.98 14.98 0 0 0 8.05 2.33c8.316 0 15.057-6.742 15.057-15.057 0-.208-.004-.414-.012-.62.3-.236 2.161-1.727 2.617-2.686 0 0-1.51.628-2.989.776h-.01l.008-.005c.137-.09 2.041-1.387 2.3-2.932 0 0-1.07.57-2.565 1.07a17.16 17.16 0 0 1-.775.237 5.282 5.282 0 0 0-9.004 4.806c-.407-.016-6.619-.365-10.844-5.482 0 0-2.525 3.448 1.505 6.993 0 0-1.225-.049-2.282-.68 0 0-.388 4.176 4.176 5.244 0 0-.898.34-2.331.098 0 0 .801 3.375 4.856 3.69 0 0-3.206 2.897-7.758 2.217h.001z" fill="#FFF"></path></g></svg>